# xmcd
# 
# Track frame offsets:
#     182
#     14057
#     24840
#     36315
#     50330
#     58967
#     75927
#     83080
#     99570
#     110692
#     121310
#     130585
#     139702
#     153585
#     170370
#     184285
#     200307
#     217542
#     231255
#     243170
#     256077
#     271522
#     283405
#     295137
# 
# Disc length: 4131
# 
# Revision: 2
# Processed by: cddbd v1.5.2PL0 Copyright (c) Steve Scherf et al.
# Submitted via: fre:ac v1.0.17
# 
DISCID=47102118
DTITLE=Amalia Rodrigues - Amalia 50 anos - Os compositores
DYEAR=0
DGENRE=National Folk
TTITLE0=Lisboa Antiga
TTITLE1=Coimbra
TTITLE2=O cochicho
TTITLE3=H  festa na mouraria
TTITLE4=Grande arroz
TTITLE5=Rua do Capel o
TTITLE6=O timpanas
TTITLE7=Foi Deus
TTITLE8=Vou dar de beber   dor
TTITLE9=Ou a l    Senhor Vilnho
TTITLE10=ou n o  ?
TTITLE11=J lia florista
TTITLE12=Ai Mouraria
TTITLE13=Fado Malhoa
TTITLE14=S    noitinha
TTITLE15=Ai Chico, Chico
TTITLE16=Tudo isto   fado
TTITLE17=Cuidei que tinha morrido
TTITLE18=Maria Lisboa
TTITLE19=Asas Fechadas
TTITLE20=Fandangueiro
TTITLE21=Meia noite   uma guitarra
TTITLE22=Balada do sino
TTITLE23=Gr ndola
EXTD=
EXTT0=
EXTT1=
EXTT2=
EXTT3=
EXTT4=
EXTT5=
EXTT6=
EXTT7=
EXTT8=
EXTT9=
EXTT10=
EXTT11=
EXTT12=
EXTT13=
EXTT14=
EXTT15=
EXTT16=
EXTT17=
EXTT18=
EXTT19=
EXTT20=
EXTT21=
EXTT22=
EXTT23=
PLAYORDER=
